<?xml version="1.0" encoding="utf-8"?>
<!-- Generator: Adobe Illustrator 25.4.1, SVG Export Plug-In . SVG Version: 6.00 Build 0)  -->
<svg version="1.1" id="Layer_1" xmlns="http://www.w3.org/2000/svg" xmlns:xlink="http://www.w3.org/1999/xlink" x="0px" y="0px"
	 viewBox="0 0 200.4 262.7" style="enable-background:new 0 0 200.4 262.7;" xml:space="preserve">
<style type="text/css">
	.st0{fill-rule:evenodd;clip-rule:evenodd;fill:#3BBCED;}
</style>
<g>
	<path class="st0" d="M177,52.9L113.1,16V5.1h-8v10.7l0-0.1L40.7,52.9H9.4v8h56.5v17.7v2.2v18.4h20.5V80.8v-2.2V60.9h18.8v109.7
		c0.3,0,5.7-0.1,8,1V60.9h5.6v111.8c3,1.5,5.7,3.2,8,5.7V60.9h63.7v-8H177z M82.6,78.6H69.7V60.9h12.8V78.6z M56.7,52.9l48.5-28v28
		H56.7z M113.1,25.2l48,27.7h-48V25.2z"/>
	<path class="st0" d="M14.2,155.6c0,12.9,6.3,24.4,16,31.5v0c2.4-0.7,5-1.1,7.7-1.1c1.1,0,1.8,0.1,2.8,0.2c3-12.6,14.6-21,28.1-21
		c7.7,0,15.2,2.1,20.3,7c2.4-5.1,3.2-10.7,3.2-16.7c0-6.9-1.8-13.6-5.2-19.5H19.4C16,142,14.2,148.8,14.2,155.6z"/>
	<path class="st0" d="M133,201.2c0-14.9-12.1-27-27-27c-5.7,0-10.9,1.7-15.3,4.7c-5-5.8-12.3-9.5-20.5-9.5
		c-12.7,0-23.4,8.8-26.3,20.7h0c-1-0.1-2-0.2-3-0.2c-14.9,0-27,12.1-27,27c0,14.9,12.1,27,27,27c1.9,0,3.8-0.2,5.6-0.6
		c4.5,8.7,13.6,14.7,24,14.7c9.1,0,17.1-4.5,22-11.4c4.7,3.9,10.7,6.2,17.2,6.2c14.9,0,27-12.1,27-27c0-6-2-11.6-5.3-16
		C132.5,207.2,133,204.3,133,201.2z"/>
	<rect x="20.4" y="90.2" class="st0" width="19.4" height="19.5"/>
	<rect x="20.4" y="113.1" class="st0" width="19.2" height="19.3"/>
	<rect x="43.6" y="113.2" class="st0" width="19.1" height="19.2"/>
	<rect x="43.6" y="90.3" class="st0" width="19.1" height="19.2"/>
	<rect x="66.6" y="113.1" class="st0" width="19.2" height="19.3"/>
</g>
</svg>
